# xmcd
#
# Track frame offsets: 
#        150
#        20108
#        39684
#        54968
#        79556
#        97263
#        114545
#        130722
#        151642
#        175828
#        195988
#        218098
#        237788
#        257712
#        280497
#        302824
#        323874
#
# Disc length: 4587 seconds
#
# Revision: 0
# Processed by: cddbd v1.5.1PL0 Copyright (c) Steve Scherf et al.
# Submitted via: ExactAudioCopy v0.95a4
#
DISCID=e311e911
DTITLE=刀郎 - 2004北方的天空下A
DYEAR=2004
DGENRE=Pop
TTITLE0=北方的天空下
TTITLE1=在那遥远的地方
TTITLE2=曼利
TTITLE3=祝福
TTITLE4=吉尔拉
TTITLE5=可惜我是水瓶座
TTITLE6=雪中飞舞
TTITLE7=爱的寂寞
TTITLE8=离开我以后
TTITLE9=沙枣花儿香
TTITLE10=爱不到的滋味
TTITLE11=为什么受伤的总是我
TTITLE12=大男人
TTITLE13=回心转意
TTITLE14=实实在在
TTITLE15=如兄弟
TTITLE16=爸爸我心中的山
EXTD=
EXTT0=
EXTT1=
EXTT2=
EXTT3=
EXTT4=
EXTT5=
EXTT6=
EXTT7=
EXTT8=
EXTT9=
EXTT10=
EXTT11=
EXTT12=
EXTT13=
EXTT14=
EXTT15=
EXTT16=
PLAYORDER=
